<svg width="1280" height="320" viewBox="0 0 1280 320" fill="none" xmlns="http://www.w3.org/2000/svg" role="img" aria-label="Plaidify - the open-source gateway to authenticated web data">
  <defs>
    <linearGradient id="bg" x1="0" y1="0" x2="1280" y2="320" gradientUnits="userSpaceOnUse">
      <stop offset="0" stop-color="#0A0E1F"/>
      <stop offset="0.5" stop-color="#121A3A"/>
      <stop offset="1" stop-color="#0A0E1F"/>
    </linearGradient>
    <linearGradient id="accent" x1="980" y1="80" x2="1200" y2="240" gradientUnits="userSpaceOnUse">
      <stop offset="0" stop-color="#6E9BFF"/>
      <stop offset="1" stop-color="#3CE0CD"/>
    </linearGradient>
    <radialGradient id="glow" cx="0.82" cy="0.42" r="0.5">
      <stop offset="0" stop-color="#3E5BC0" stop-opacity="0.5"/>
      <stop offset="1" stop-color="#3E5BC0" stop-opacity="0"/>
    </radialGradient>
  </defs>

  <rect width="1280" height="320" rx="16" fill="url(#bg)"/>
  <rect width="1280" height="320" rx="16" fill="url(#glow)"/>

  <!-- node graph motif: a client fanning out to authorized sites -->
  <g stroke="url(#accent)" stroke-width="3" opacity="0.95">
    <line x1="1000" y1="160" x2="1092" y2="86"/>
    <line x1="1000" y1="160" x2="1116" y2="160"/>
    <line x1="1000" y1="160" x2="1092" y2="234"/>
    <line x1="1092" y1="86" x2="1188" y2="112"/>
    <line x1="1092" y1="234" x2="1188" y2="208"/>
  </g>
  <g fill="#1B2547" stroke="url(#accent)" stroke-width="3.5">
    <circle cx="1092" cy="86" r="16"/>
    <circle cx="1116" cy="160" r="16"/>
    <circle cx="1092" cy="234" r="16"/>
    <circle cx="1188" cy="112" r="11"/>
    <circle cx="1188" cy="208" r="11"/>
  </g>
  <circle cx="1000" cy="160" r="26" fill="#1B2547" stroke="url(#accent)" stroke-width="4"/>
  <circle cx="1000" cy="160" r="11" fill="#3CE0CD"/>

  <!-- wordmark -->
  <text x="84" y="190" font-family="Segoe UI, Helvetica, Arial, sans-serif" font-size="104" font-weight="800" fill="#FFFFFF" letter-spacing="-3">Plaidify<tspan fill="#6E9BFF">.</tspan></text>

  <!-- surface pills -->
  <g font-family="SFMono-Regular, Consolas, Menlo, monospace" font-size="18" font-weight="600">
    <rect x="88" y="232" width="132" height="40" rx="20" fill="#1B2547" stroke="#33407A"/>
    <text x="154" y="258" fill="#B7C4EC" text-anchor="middle">REST API</text>
    <rect x="232" y="232" width="166" height="40" rx="20" fill="#1B2547" stroke="#33407A"/>
    <text x="315" y="258" fill="#B7C4EC" text-anchor="middle">Hosted Link</text>
    <rect x="410" y="232" width="158" height="40" rx="20" fill="#1B2547" stroke="#33407A"/>
    <text x="489" y="258" fill="#B7C4EC" text-anchor="middle">MCP Agents</text>
  </g>
</svg>
